<svg id="Layer_1" data-name="Layer 1" xmlns="http://www.w3.org/2000/svg" xmlns:xlink="http://www.w3.org/1999/xlink" viewBox="0 0 1000 1000"><defs><style>.cls-1{fill:url(#linear-gradient);}.cls-2{fill:#fff;}</style><linearGradient id="linear-gradient" y1="500" x2="1000" y2="500" gradientUnits="userSpaceOnUse"><stop offset="0" stop-color="#0575e6"/><stop offset="1" stop-color="#054ce6"/></linearGradient></defs><rect class="cls-1" width="1000" height="1000" rx="250"/><path class="cls-2" d="M878.9,218.76,554.11,31.24a108.23,108.23,0,0,0-108.22,0L121.1,218.76A108.23,108.23,0,0,0,67,312.49v375a108.23,108.23,0,0,0,54.11,93.73L445.89,968.76a108.23,108.23,0,0,0,108.22,0L878.9,781.24A108.23,108.23,0,0,0,933,687.51v-375A108.23,108.23,0,0,0,878.9,218.76ZM775.8,628a54.12,54.12,0,0,1-27.06,46.87l-221.68,128a54.16,54.16,0,0,1-54.12,0l-24-13.86a54.12,54.12,0,0,0-60.3,4.16L299,862.9a8,8,0,0,1-12.84-7.41L301.8,743a54.12,54.12,0,0,0-26.54-54.3l-24-13.85A54.12,54.12,0,0,1,224.2,628V372a54.12,54.12,0,0,1,27.06-46.87l221.68-128a54.16,54.16,0,0,1,54.12,0l221.68,128A54.12,54.12,0,0,1,775.8,372Z"/></svg>